PathFileType	4	(X/Y/Z)	C:/Users/opensim2020/Desktop/walking_exp_matlab/subject01_walking12_straight_01.trc	
DataRate	CameraRate	NumFrames	NumMarkers	Units	OrigDataRate	OrigDataStartFrame	OrigNumFrames	
100.00	100.00	7	44	mm	100.00	619	193	
Frame#	Time	LFHD			RFHD			LBHD			RBHD			C7			T10			CLAV			STRN			RBAK			LSHO			LUPA			LELB			LFRM			LWRA			LWRB			LFIN			RSHO			RUPA			RELB			RFRM			RWRA			RWRB			RFIN			LASI			RASI			LPSI			RPSI			LTHI			LKNE			LTIB			LANK			LHEE			LTOE			RTHI			RKNE			RTIB			RANK			RHEE			RTOE			*39			*40			*41			*42			*43			
		X1	Y1	Z1	X2	Y2	Z2	X3	Y3	Z3	X4	Y4	Z4	X5	Y5	Z5	X6	Y6	Z6	X7	Y7	Z7	X8	Y8	Z8	X9	Y9	Z9	X10	Y10	Z10	X11	Y11	Z11	X12	Y12	Z12	X13	Y13	Z13	X14	Y14	Z14	X15	Y15	Z15	X16	Y16	Z16	X17	Y17	Z17	X18	Y18	Z18	X19	Y19	Z19	X20	Y20	Z20	X21	Y21	Z21	X22	Y22	Z22	X23	Y23	Z23	X24	Y24	Z24	X25	Y25	Z25	X26	Y26	Z26	X27	Y27	Z27	X28	Y28	Z28	X29	Y29	Z29	X30	Y30	Z30	X31	Y31	Z31	X32	Y32	Z32	X33	Y33	Z33	X34	Y34	Z34	X35	Y35	Z35	X36	Y36	Z36	X37	Y37	Z37	X38	Y38	Z38	X39	Y39	Z39	X40	Y40	Z40	X41	Y41	Z41	X42	Y42	Z42	X43	Y43	Z43	X44	Y44	Z44	

1	0.000	-1100.15808	-1009.60724	1661.35608	-986.55408	-1009.88361	1666.55908	-1105.38892	-1109.32288	1585.66028	-984.93384	-1112.01563	1588.70642	-1056.99988	-1117.80444	1419.72021	-1036.94470	-1173.52222	1131.25293	-1053.96289	-975.87744	1343.05762	-1059.97583	-946.13165	1183.45459	-975.10181	-1182.67969	1230.42468	-1213.89343	-1036.94739	1375.47937	-1303.25415	-1059.44629	1194.54297	-1316.10461	-1048.77368	1041.93323	-1346.18750	-964.23206	964.07135	-1341.26379	-837.06342	908.73920	-1356.50916	-883.21564	873.32837	-1378.73572	-809.43109	841.36700	-902.53162	-1037.69043	1376.20105	-800.68085	-1126.23547	1189.29053	-795.21570	-1147.15955	1068.56824	-761.56842	-1152.03625	950.51227	-780.94128	-1111.34619	814.78479	-739.42773	-1150.32349	829.80383	-737.16974	-1136.32507	746.43304	-1150.85876	-1026.75659	906.10217	-935.48907	-1003.47205	919.17609	-1074.62634	-1204.53467	937.49677	-930.56226	-1186.83679	939.22272	-1196.39868	-1153.64954	593.39246	-1184.40503	-1209.24585	467.25528	-1176.06335	-1320.79333	311.81775	-1123.84448	-1405.44751	105.76532	-1061.33582	-1440.89771	91.47044	-1160.77356	-1282.32324	25.63221	-868.07941	-989.24969	597.16095	-900.46442	-941.13037	449.98944	-889.36145	-943.10480	275.52554	-935.46350	-901.41321	72.47830	-986.35400	-938.87219	23.81487	-934.84796	-758.99213	63.32315	-1009.70355	-1028.79565	1696.13440	-3102.05640	1973.20789	1023.44116	-3140.66724	2012.47461	1022.11133						 
2	0.010	-1097.65063	-1001.59784	1661.50671	-984.14764	-1001.64685	1666.25952	-1102.98621	-1101.06287	1585.66931	-982.53070	-1103.67969	1588.42993	-1055.17603	-1109.73535	1419.33118	-1036.02502	-1164.29321	1130.49194	-1052.03809	-967.54529	1342.95215	-1058.32129	-937.18042	1183.64258	-974.20135	-1174.21741	1229.47021	-1211.98120	-1028.21082	1375.50037	-1301.97986	-1050.27026	1194.88928	-1314.85034	-1039.52295	1042.19092	-1344.75500	-954.75336	964.22815	-1339.38367	-827.67828	909.27197	-1354.87000	-873.62457	873.76001	-1376.73425	-799.66357	842.14899	-900.22955	-1030.49597	1375.61731	-799.69470	-1118.37219	1188.06287	-794.77295	-1139.15442	1067.49939	-761.45477	-1144.78516	949.31958	-781.33051	-1105.26025	813.02087	-739.46222	-1143.81470	828.48370	-737.60065	-1130.35339	745.06677	-1149.77661	-1016.55737	905.80090	-934.69196	-993.93677	918.98267	-1073.93311	-1194.65955	936.80865	-929.38995	-1177.58105	938.97430	-1196.24341	-1144.27869	593.11255	-1184.40906	-1200.52417	467.22168	-1176.58289	-1314.51624	313.50250	-1125.15869	-1403.05249	109.21030	-1062.76978	-1438.81946	95.70805	-1160.82397	-1282.01465	25.65853	-867.76471	-979.78973	597.28284	-899.46527	-933.32214	449.47824	-890.22302	-937.90717	274.35355	-935.94501	-899.84534	72.21630	-986.99237	-938.14185	24.63518	-934.46545	-757.24609	57.81260	-1007.03845	-1020.46344	1695.93481	-3101.91577	1973.02563	1023.44580	-3140.71948	2012.54041	1021.98108						 
3	0.020	-1094.88428	-993.14917	1661.69446	-981.53455	-993.24554	1666.51770	-1100.52014	-1092.68457	1586.08582	-980.09290	-1095.22607	1588.49756	-1053.26843	-1101.52039	1419.49939	-1035.26367	-1154.88818	1130.12781	-1050.08679	-959.14777	1343.18066	-1056.55652	-928.27722	1184.07666	-973.27307	-1165.61902	1228.91711	-1210.17896	-1019.77240	1375.88843	-1300.17249	-1041.15210	1195.30249	-1313.48865	-1030.34741	1042.48401	-1343.34534	-945.60431	964.64307	-1337.37207	-818.75323	909.35077	-1353.18542	-864.44989	874.04529	-1374.70984	-790.29474	842.48291	-898.52893	-1022.14331	1375.03723	-798.61139	-1110.52466	1186.99011	-794.27563	-1131.37256	1066.29163	-761.23010	-1137.33569	948.15228	-781.45123	-1098.19849	811.80609	-739.54010	-1136.87195	827.36823	-738.00543	-1123.84802	743.74542	-1148.46558	-1006.17651	905.49170	-933.68726	-984.28131	918.90747	-1073.28894	-1184.69836	936.20874	-928.30725	-1167.63281	938.23816	-1196.01221	-1134.35583	592.86188	-1184.19031	-1190.91919	467.27634	-1177.21265	-1307.58093	315.32330	-1126.51941	-1400.22998	112.86974	-1064.33240	-1436.53711	100.76467	-1160.89490	-1281.87231	25.81774	-867.18622	-971.98297	598.03113	-898.78668	-924.72070	449.49451	-890.63025	-932.71912	274.56393	-935.48413	-897.02924	72.02047	-986.59943	-937.43860	25.81416	-934.64465	-754.63202	53.60744	-1004.33856	-1012.30017	1695.96973	-3101.92261	1973.01721	1023.57880	-3140.64331	2012.48779	1021.99689						 
4	0.030	-1092.42322	-984.84906	1662.68689	-978.88995	-984.77545	1666.94556	-1097.97620	-1084.25488	1586.81030	-977.60339	-1086.66846	1588.88757	-1051.45313	-1092.60657	1419.56787	-1034.64819	-1145.39978	1130.06018	-1048.23181	-950.61981	1343.78491	-1054.61243	-919.23590	1184.81287	-972.25580	-1157.04956	1228.75513	-1208.44324	-1011.15442	1376.54749	-1298.58704	-1032.02209	1195.98743	-1312.04993	-1021.28912	1043.06226	-1341.58704	-936.73926	965.01331	-1335.27917	-809.86469	909.57800	-1351.33997	-855.72552	874.19965	-1372.56763	-781.47760	842.70587	-896.55371	-1014.16595	1374.77258	-797.54504	-1102.46155	1186.05920	-793.75604	-1123.14636	1065.28870	-761.02991	-1129.75903	947.06311	-781.45502	-1090.68604	810.75006	-739.60040	-1129.37366	826.38251	-738.33813	-1117.15576	742.80310	-1147.03210	-995.75916	905.41803	-932.60876	-974.64087	919.14423	-1072.70996	-1174.63708	935.72485	-927.42206	-1158.07544	938.37067	-1195.78735	-1123.81543	592.79492	-1184.25916	-1180.56140	467.27185	-1177.88062	-1299.78955	317.37881	-1127.83069	-1396.86731	116.85828	-1065.72729	-1433.30811	106.02045	-1160.92993	-1281.33838	25.84391	-866.10016	-963.22766	598.59119	-897.96973	-916.28760	450.26526	-890.17572	-925.94385	275.10178	-934.82336	-894.26746	71.56894	-985.83038	-935.57904	26.73581	-935.64624	-751.91425	49.34876	-1001.61292	-1003.95056	1696.48743	-3101.88696	1973.13562	1023.52844	-3140.62280	2012.50769	1022.04401						 
5	0.040	-1089.87036	-976.46136	1663.52649	-976.49774	-976.02533	1667.48523	-1095.36816	-1075.81042	1587.79541	-974.93500	-1078.04175	1589.67639	-1049.73962	-1083.87537	1419.97522	-1034.02844	-1135.91504	1130.15491	-1046.22473	-942.12585	1344.64868	-1052.85303	-909.85535	1185.84924	-971.16632	-1148.44775	1228.90527	-1206.73633	-1002.39459	1377.43066	-1296.59399	-1022.92505	1196.77173	-1310.52832	-1012.42206	1043.95203	-1339.68835	-928.09308	965.46722	-1333.05713	-801.60028	909.46338	-1349.35046	-847.48450	874.26923	-1370.27563	-773.19366	842.57605	-894.63678	-1005.94098	1374.81250	-796.47369	-1094.21716	1185.41382	-793.21008	-1114.63538	1064.57007	-760.79175	-1121.46204	946.28564	-781.37274	-1082.67029	809.89978	-739.54919	-1121.09460	825.51617	-738.71918	-1109.18872	741.73615	-1145.68982	-985.32098	905.57678	-931.42749	-964.73328	919.89014	-1072.24866	-1164.49670	935.50403	-926.79224	-1149.23499	939.59808	-1195.62671	-1112.73303	592.87067	-1184.59094	-1169.24377	467.29126	-1178.71130	-1291.15247	319.51636	-1129.14832	-1392.83203	121.42676	-1067.09729	-1429.51807	111.78933	-1160.99707	-1280.80847	26.00167	-864.92944	-955.20447	599.53796	-896.99573	-908.50751	451.13504	-889.11304	-919.48456	275.88770	-933.81927	-891.59344	71.43376	-984.91052	-934.42896	27.89964	-936.94037	-749.26599	45.35348	-998.86792	-995.20184	1697.25452	-3101.93091	1973.00513	1023.61475	-3140.80200	2012.49048	1022.06738						 
6	0.050	-1087.16235	-967.60767	1664.12891	-973.99518	-967.25372	1668.15356	-1092.72180	-1067.40625	1588.90564	-972.36755	-1069.33557	1590.55273	-1048.08728	-1075.31824	1420.67383	-1033.29443	-1126.54248	1130.38806	-1044.49194	-933.71289	1345.82471	-1050.97192	-900.55743	1186.99902	-970.18433	-1139.71545	1229.13013	-1204.97510	-993.32855	1378.30688	-1294.63477	-1013.83075	1197.76099	-1308.87317	-1003.66339	1044.85547	-1337.80994	-919.65417	965.87329	-1330.59521	-793.72333	909.13409	-1347.33435	-839.76953	874.42249	-1367.90454	-765.43335	842.25244	-892.71094	-998.26312	1374.87122	-795.41010	-1085.84778	1185.07996	-792.69305	-1105.96765	1064.06274	-760.49365	-1112.71008	945.89850	-781.46802	-1073.62427	809.46503	-739.61584	-1112.79578	824.95013	-739.01324	-1100.93567	741.10034	-1144.30774	-974.81757	905.99243	-930.26959	-954.88684	920.84521	-1071.90649	-1154.27148	935.57813	-926.57489	-1139.23328	940.09418	-1195.46912	-1101.00769	592.90594	-1185.01147	-1156.83569	467.13794	-1179.63794	-1281.60864	321.77924	-1130.48010	-1388.14966	126.29162	-1068.33667	-1424.89258	118.09827	-1161.10706	-1280.05969	26.33433	-863.58655	-945.84125	600.13580	-895.72302	-900.40918	451.17856	-887.44214	-913.50287	276.28708	-933.37524	-889.76758	71.05384	-984.26996	-933.66400	28.68595	-937.39960	-747.89264	42.04165	-996.29810	-986.26801	1697.94141	-3101.90234	1973.13452	1023.42920	-3140.84082	2012.49194	1021.98535						 
7	0.060	-1085.24548	-959.54712	1665.28345	-971.60718	-958.27246	1668.86560	-1090.17957	-1058.90295	1590.05652	-969.86292	-1060.57178	1591.50317	-1046.53113	-1066.77332	1421.16003	-1032.53601	-1117.12939	1130.80591	-1042.42334	-925.11334	1346.70959	-1049.16333	-891.14026	1188.25659	-969.31268	-1130.89673	1229.31177	-1203.14966	-984.24481	1379.18860	-1292.88123	-1004.67310	1198.78003	-1307.25977	-995.21985	1046.00378	-1335.98901	-911.57104	966.51355	-1328.06335	-786.20972	908.59143	-1345.13770	-832.33881	874.11658	-1365.30261	-758.24933	841.75134	-891.13489	-990.12738	1375.43689	-794.40686	-1077.40662	1184.91724	-792.11493	-1097.13879	1063.82141	-760.31696	-1103.94482	945.50226	-781.06641	-1064.80676	809.31378	-739.46857	-1103.82202	824.68506	-739.18750	-1091.97351	740.78674	-1142.86243	-964.28986	906.55127	-928.82739	-944.99738	922.03131	-1071.67908	-1143.96216	936.06812	-926.38904	-1130.11035	941.76013	-1195.36047	-1088.68091	592.90436	-1185.65356	-1143.42651	466.79465	-1180.53735	-1271.23694	324.09811	-1131.86755	-1382.84265	131.45978	-1069.75818	-1419.49780	124.84771	-1160.99402	-1279.39246	26.48378	-861.97510	-937.46515	600.91937	-894.27527	-893.15869	450.96179	-885.63184	-907.24677	275.64301	-933.08215	-887.73468	70.30041	-984.13617	-932.77795	28.98915	-936.14777	-746.85004	39.96127	-993.72888	-977.41687	1698.94861	-3101.92578	1973.09814	1023.45123	-3140.57544	2012.45789	1021.93188						 
